<svg width="248" height="67" viewBox="0 0 248 67" fill="none" xmlns="http://www.w3.org/2000/svg">
<path d="M245 3H33.5C16.6553 3 3 16.6553 3 33.5V64H207C227.987 64 245 46.9868 245 26V3Z" fill="url(#paint0_linear_225_2495)"/>
<path d="M245 3H33.5C16.6553 3 3 16.6553 3 33.5V64H207C227.987 64 245 46.9868 245 26V3Z" fill="url(#paint1_radial_225_2495)" fill-opacity="0.2"/>
<path d="M245 3H33.5C16.6553 3 3 16.6553 3 33.5V64H207C227.987 64 245 46.9868 245 26V3Z" fill="url(#paint2_radial_225_2495)" fill-opacity="0.2"/>
<path d="M245 3H33.5C16.6553 3 3 16.6553 3 33.5V64H207C227.987 64 245 46.9868 245 26V3Z" stroke="#FFD8AA" stroke-width="5"/>
<defs>
<linearGradient id="paint0_linear_225_2495" x1="124" y1="3" x2="124" y2="64" gradientUnits="userSpaceOnUse">
<stop offset="0.0464922" stop-color="#E95629"/>
<stop offset="1" stop-color="#E95629"/>
</linearGradient>
<radialGradient id="paint1_radial_225_2495" cx="0" cy="0" r="1" gradientUnits="userSpaceOnUse" gradientTransform="translate(116 -17.5) rotate(95.819) scale(78.9066 167.595)">
<stop offset="0.362554" stop-color="white"/>
<stop offset="0.962615" stop-color="white" stop-opacity="0"/>
</radialGradient>
<radialGradient id="paint2_radial_225_2495" cx="0" cy="0" r="1" gradientUnits="userSpaceOnUse" gradientTransform="translate(124 64) rotate(-90) scale(61 242)">
<stop stop-color="white"/>
<stop offset="1" stop-opacity="0"/>
</radialGradient>
</defs>
</svg>
