<svg width="217" height="64" viewBox="0 0 217 64" fill="none" xmlns="http://www.w3.org/2000/svg">
<g id="Vector 3192">
<path d="M214 3H32C15.9837 3 3 15.9837 3 32V61H176C196.987 61 214 43.9868 214 23V3Z" fill="url(#paint0_linear_225_2725)"/>
<path d="M214 3H32C15.9837 3 3 15.9837 3 32V61H176C196.987 61 214 43.9868 214 23V3Z" fill="url(#paint1_radial_225_2725)" fill-opacity="0.2"/>
<path d="M214 3H32C15.9837 3 3 15.9837 3 32V61H176C196.987 61 214 43.9868 214 23V3Z" fill="url(#paint2_radial_225_2725)" fill-opacity="0.2"/>
<path d="M214 3H32C15.9837 3 3 15.9837 3 32V61H176C196.987 61 214 43.9868 214 23V3Z" stroke="#FFD8AA" stroke-width="5"/>
</g>
<defs>
<linearGradient id="paint0_linear_225_2725" x1="108.5" y1="3" x2="108.5" y2="61" gradientUnits="userSpaceOnUse">
<stop offset="0.0464922" stop-color="#E95629"/>
<stop offset="1" stop-color="#E95629"/>
</linearGradient>
<radialGradient id="paint1_radial_225_2725" cx="0" cy="0" r="1" gradientUnits="userSpaceOnUse" gradientTransform="translate(101.525 -16.4918) rotate(95.3389) scale(74.9646 146.246)">
<stop offset="0.362554" stop-color="white"/>
<stop offset="0.962615" stop-color="white" stop-opacity="0"/>
</radialGradient>
<radialGradient id="paint2_radial_225_2725" cx="0" cy="0" r="1" gradientUnits="userSpaceOnUse" gradientTransform="translate(108.5 61) rotate(-90) scale(58 211)">
<stop stop-color="white"/>
<stop offset="1" stop-opacity="0"/>
</radialGradient>
</defs>
</svg>
