<svg width="121" height="34" viewBox="0 0 121 34" fill="none" xmlns="http://www.w3.org/2000/svg">
<g id="Vector 3197">
<path d="M120 1H16C7.71573 1 1 7.71573 1 16V17V33H99C110.598 33 120 23.598 120 12V1Z" fill="url(#paint0_linear_234_68)"/>
<path d="M120 1H16C7.71573 1 1 7.71573 1 16V17V33H99C110.598 33 120 23.598 120 12V1Z" fill="url(#paint1_radial_234_68)" fill-opacity="0.2"/>
<path d="M120 1H16C7.71573 1 1 7.71573 1 16V17V33H99C110.598 33 120 23.598 120 12V1Z" fill="url(#paint2_radial_234_68)" fill-opacity="0.2"/>
<path d="M120 1H16C7.71573 1 1 7.71573 1 16V17V33H99C110.598 33 120 23.598 120 12V1Z" stroke="#FFD8AA" stroke-width="2"/>
</g>
<defs>
<linearGradient id="paint0_linear_234_68" x1="60.5" y1="1" x2="60.5" y2="33" gradientUnits="userSpaceOnUse">
<stop offset="0.0464922" stop-color="#E95629"/>
<stop offset="1" stop-color="#E95629"/>
</linearGradient>
<radialGradient id="paint1_radial_234_68" cx="0" cy="0" r="1" gradientUnits="userSpaceOnUse" gradientTransform="translate(56.5661 -9.7541) rotate(95.4568) scale(41.3678 82.464)">
<stop offset="0.362554" stop-color="white"/>
<stop offset="0.962615" stop-color="white" stop-opacity="0"/>
</radialGradient>
<radialGradient id="paint2_radial_234_68" cx="0" cy="0" r="1" gradientUnits="userSpaceOnUse" gradientTransform="translate(60.5 33) rotate(-90) scale(32 119)">
<stop stop-color="white"/>
<stop offset="1" stop-opacity="0"/>
</radialGradient>
</defs>
</svg>
